<?xml version="1.0" standalone="no"?>
<!DOCTYPE svg PUBLIC "-//W3C//DTD SVG 20010904//EN"
 "http://www.w3.org/TR/2001/REC-SVG-20010904/DTD/svg10.dtd">
<svg version="1.0" xmlns="http://www.w3.org/2000/svg"
 width="512.000000pt" height="512.000000pt" viewBox="0 0 512.000000 512.000000"
 preserveAspectRatio="xMidYMid meet">

<g transform="translate(0.000000,512.000000) scale(0.100000,-0.100000)"
fill="#000000" stroke="none">
<path d="M1244 5108 c-23 -11 -44 -48 -44 -78 0 -10 25 -47 55 -82 67 -76 138
-216 159 -315 50 -228 -18 -471 -180 -641 l-73 -77 -183 182 -183 183 32 32
32 32 101 -70 c55 -38 113 -77 130 -88 77 -47 159 51 98 117 -13 14 -88 70
-167 126 -107 75 -152 101 -175 101 -26 0 -57 -27 -223 -193 -164 -164 -193
-197 -193 -222 0 -23 47 -96 185 -294 l186 -265 -321 -321 c-289 -290 -320
-324 -320 -353 0 -44 38 -82 82 -82 29 0 63 30 343 310 l311 310 177 -254 178
-253 282 -280 c243 -240 292 -284 353 -316 173 -90 361 -89 530 2 l72 39 105
-107 106 -106 11 -125 c27 -302 109 -589 245 -861 114 -227 238 -400 431 -599
72 -74 138 -146 147 -160 24 -35 23 -124 -3 -166 -45 -72 -148 -92 -225 -44
-52 32 -281 283 -385 421 -289 384 -470 845 -525 1333 -8 66 -37 106 -79 106
-71 0 -90 -39 -76 -156 58 -470 217 -891 477 -1274 115 -168 182 -249 347
-417 167 -171 208 -196 326 -197 66 -1 84 3 143 32 122 60 184 169 175 306 -7
100 -31 141 -169 283 -65 68 -148 160 -184 205 -231 286 -383 613 -454 978
-19 96 -41 277 -34 283 6 7 187 -15 283 -34 365 -71 692 -223 977 -453 44 -35
139 -121 212 -191 155 -149 190 -169 302 -169 68 -1 84 3 145 34 120 61 181
169 172 304 -7 106 -35 150 -202 314 -215 211 -409 357 -651 490 -280 155
-642 276 -948 319 l-122 17 -505 501 c-533 530 -505 505 -809 712 -46 32 -94
30 -120 -3 -23 -30 -27 -71 -8 -95 7 -8 86 -68 177 -131 119 -84 195 -147 274
-226 l108 -109 -48 -7 c-27 -4 -71 -12 -97 -18 l-49 -10 -61 60 c-34 33 -77
67 -94 76 -47 23 -111 30 -162 16 l-44 -12 -160 160 -161 161 62 65 c161 172
238 350 249 576 9 187 -37 360 -137 513 -94 144 -147 184 -206 155z m-161
-1346 l397 -397 -10 -35 c-27 -95 -5 -164 83 -257 l68 -72 -15 -75 c-9 -41
-16 -85 -16 -98 0 -18 -21 -2 -111 87 -101 101 -141 154 -478 635 -202 289
-371 531 -375 538 -7 12 37 72 53 72 4 0 185 -179 404 -398z m690 -462 l42
-39 -58 -58 -58 -58 -39 42 c-48 51 -53 91 -15 128 37 38 77 33 128 -15z m541
-128 c136 -64 224 -191 234 -336 19 -301 -291 -515 -563 -388 -88 42 -148 100
-190 186 -113 228 6 490 255 562 74 22 188 11 264 -24z m701 -607 c465 -52
918 -224 1285 -488 112 -80 189 -146 337 -283 124 -116 163 -171 163 -229 0
-44 -38 -112 -74 -135 -42 -26 -131 -27 -166 -3 -14 9 -86 75 -160 147 -200
194 -371 317 -599 431 -270 136 -560 218 -861 245 l-125 11 -106 106 -107 105
39 72 c39 73 69 174 69 235 l0 35 123 -121 122 -121 60 -7z"/>
<path d="M2090 3041 c-178 -58 -235 -255 -114 -390 93 -104 245 -108 343 -10
42 42 61 80 68 139 16 135 -85 255 -221 266 -28 2 -62 0 -76 -5z m123 -182
c56 -69 -36 -166 -110 -114 -43 30 -37 110 10 133 30 16 79 6 100 -19z"/>
<path d="M3312 4783 c-11 -10 -56 -75 -101 -146 -56 -88 -81 -136 -81 -158 0
-26 23 -54 150 -187 l150 -155 -52 -19 c-122 -42 -259 -156 -326 -270 -80
-135 -110 -309 -78 -458 51 -243 251 -445 491 -495 454 -95 856 307 760 759
-43 205 -209 396 -403 464 l-52 19 150 155 c127 133 150 161 150 187 0 22 -25
70 -81 158 -45 71 -90 136 -101 146 -18 15 -47 17 -288 17 -241 0 -270 -2
-288 -17z m533 -219 l48 -76 -147 -147 -146 -146 -146 146 -147 147 48 76 47
76 198 0 198 0 47 -76z m-130 -579 c256 -67 415 -329 350 -578 -45 -173 -178
-307 -350 -352 -251 -65 -513 94 -580 350 -89 343 237 669 580 580z"/>
<path d="M598 2353 c-103 -103 -191 -196 -194 -206 -11 -34 57 -327 82 -356
l22 -26 311 -3 311 -3 25 25 25 25 0 301 c0 341 -2 352 -68 369 -80 21 -275
61 -300 61 -20 0 -66 -40 -214 -187z m347 0 l75 -16 0 -209 0 -208 -207 2
-207 3 -19 84 -19 84 138 138 c76 77 144 139 151 139 7 0 46 -7 88 -17z"/>
<path d="M745 1415 c-24 -23 -25 -29 -25 -165 0 -112 -3 -140 -14 -140 -7 0
-45 -16 -83 -35 -86 -43 -144 -103 -186 -193 -29 -61 -32 -76 -32 -163 0 -90
2 -99 37 -171 45 -91 103 -147 196 -191 61 -29 76 -32 162 -32 86 0 101 3 162
32 93 44 151 100 196 191 35 72 37 81 37 171 0 87 -3 102 -32 163 -42 90 -100
150 -186 193 -38 19 -76 35 -83 35 -11 0 -14 28 -14 140 0 136 -1 142 -25 165
-15 16 -36 25 -55 25 -19 0 -40 -9 -55 -25z m129 -467 c86 -26 166 -136 166
-228 0 -124 -116 -240 -240 -240 -124 0 -240 116 -240 240 0 63 23 114 75 165
70 71 145 90 239 63z"/>
<path d="M1705 1415 c-24 -23 -25 -29 -25 -165 0 -112 -3 -140 -14 -140 -7 0
-45 -16 -83 -35 -86 -43 -144 -103 -186 -193 -29 -61 -32 -76 -32 -163 0 -90
2 -99 37 -171 45 -91 103 -147 196 -191 61 -29 76 -32 162 -32 86 0 101 3 162
32 93 44 151 100 196 191 35 72 37 81 37 171 0 87 -3 102 -32 163 -42 90 -100
150 -186 193 -38 19 -76 35 -83 35 -11 0 -14 28 -14 140 0 136 -1 142 -25 165
-15 16 -36 25 -55 25 -19 0 -40 -9 -55 -25z m129 -467 c86 -26 166 -136 166
-228 0 -124 -116 -240 -240 -240 -124 0 -240 116 -240 240 0 63 23 114 75 165
70 71 145 90 239 63z"/>
</g>
</svg>
