<?xml version="1.0" standalone="no"?>
<!DOCTYPE svg PUBLIC "-//W3C//DTD SVG 20010904//EN"
 "http://www.w3.org/TR/2001/REC-SVG-20010904/DTD/svg10.dtd">
<svg version="1.0" xmlns="http://www.w3.org/2000/svg"
 width="512.000000pt" height="512.000000pt" viewBox="0 0 512.000000 512.000000"
 preserveAspectRatio="xMidYMid meet">

<g transform="translate(0.000000,512.000000) scale(0.100000,-0.100000)"
fill="#000000" stroke="none">
<path d="M4362 5100 c-20 -19 -22 -31 -22 -115 l0 -95 -73 0 c-88 0 -117 -19
-117 -75 0 -56 29 -75 117 -75 l73 0 0 -95 c0 -84 2 -96 22 -115 25 -23 65
-26 90 -6 27 20 38 61 38 142 l0 74 68 0 c82 0 112 20 112 75 0 55 -30 75
-112 75 l-68 0 0 74 c0 81 -11 122 -38 142 -25 20 -65 17 -90 -6z"/>
<path d="M2494 4846 c-93 -43 -155 -127 -185 -246 -23 -96 -14 -245 49 -760
106 -862 121 -1013 103 -1024 -6 -4 -11 0 -11 9 0 56 -105 219 -161 251 -9 5
-118 225 -244 489 -126 264 -244 506 -263 538 -53 91 -144 182 -219 219 -156
77 -328 16 -402 -142 -23 -48 -26 -67 -25 -155 0 -81 6 -115 28 -180 15 -44
131 -297 258 -563 217 -453 231 -487 234 -545 2 -70 29 -150 74 -220 16 -26
25 -47 20 -47 -5 0 -123 136 -262 303 -139 166 -281 329 -316 363 -191 184
-402 214 -539 77 -98 -98 -114 -240 -44 -389 51 -108 30 -82 771 -950 l86
-101 23 -189 c26 -219 26 -219 54 -244 27 -26 58 -25 92 2 27 21 27 24 22 92
-16 178 -48 400 -60 415 -8 9 -169 198 -358 420 -430 504 -454 534 -486 600
-35 70 -43 161 -18 206 24 47 86 79 140 73 113 -13 193 -83 468 -413 357 -427
349 -420 467 -413 77 4 128 32 157 85 14 26 49 46 228 132 138 66 218 98 231
95 36 -9 103 15 144 53 64 57 76 112 61 270 -13 132 -64 583 -125 1088 -49
409 -48 403 -36 479 13 81 38 134 80 170 26 21 42 26 86 26 48 0 58 -4 96 -37
49 -45 82 -112 103 -208 8 -38 58 -433 110 -877 59 -508 100 -821 110 -845 25
-60 65 -104 113 -125 89 -40 177 -4 232 93 l25 44 6 740 c5 660 7 746 23 800
34 119 82 174 161 183 79 8 140 -45 177 -156 l23 -67 6 -1245 c3 -685 9 -1261
13 -1280 4 -19 16 -87 27 -150 27 -154 57 -271 76 -292 22 -24 78 -23 103 2
26 26 25 52 -5 185 -57 257 -74 451 -50 580 42 227 97 371 188 490 57 76 202
216 263 255 96 60 194 62 263 4 34 -29 56 -91 46 -134 -3 -15 -39 -77 -80
-138 -40 -62 -95 -155 -121 -209 -62 -130 -146 -385 -138 -418 12 -48 77 -71
116 -41 10 7 38 73 62 147 57 177 120 309 211 445 110 164 127 250 71 369 -27
58 -89 118 -155 149 -36 16 -65 21 -131 21 -75 0 -93 -4 -153 -32 -130 -61
-305 -222 -400 -365 l-52 -78 -5 877 c-5 796 -7 884 -23 938 -39 134 -107 227
-197 269 -69 32 -188 29 -256 -6 -92 -48 -148 -129 -186 -266 -21 -74 -22
-105 -27 -814 -5 -671 -8 -739 -23 -754 -24 -24 -43 -12 -61 38 -9 24 -51 343
-97 743 -106 910 -107 918 -131 1000 -45 149 -107 237 -201 284 -81 41 -176
43 -254 7z m-969 -674 c86 -59 121 -120 366 -633 l237 -494 -171 -83 c-94 -45
-174 -79 -178 -75 -4 5 -111 227 -239 495 -248 523 -272 586 -256 690 18 122
138 171 241 100z m752 -1318 c21 -43 32 -79 27 -84 -13 -12 -410 -200 -423
-200 -13 0 -71 112 -71 138 0 14 51 42 213 119 116 56 213 102 215 102 2 1 19
-33 39 -75z"/>
<path d="M745 4763 c-139 -73 -171 -244 -66 -356 107 -116 304 -81 365 65 47
111 -7 247 -116 292 -48 20 -144 20 -183 -1z m147 -150 c23 -20 24 -80 1 -105
-20 -23 -80 -24 -105 -1 -23 20 -24 80 -1 105 20 23 80 24 105 1z"/>
<path d="M451 4124 c-18 -23 -21 -41 -21 -115 l0 -89 -74 0 c-69 0 -76 -2 -95
-26 -27 -34 -26 -57 2 -90 20 -23 33 -27 95 -32 l72 -5 0 -82 c0 -100 19 -135
76 -135 59 0 74 25 74 130 l0 90 54 0 c94 0 136 26 136 82 0 49 -22 63 -107
68 l-78 5 -5 98 c-4 83 -8 101 -24 113 -33 23 -82 18 -105 -12z"/>
<path d="M4555 3731 c-107 -27 -175 -112 -175 -218 1 -131 91 -223 220 -223
128 0 220 92 220 220 0 68 -21 119 -67 161 -55 52 -135 76 -198 60z m98 -169
c22 -19 22 -79 0 -104 -20 -22 -71 -24 -101 -2 -16 11 -22 25 -22 53 0 70 69
100 123 53z"/>
<path d="M2287 2404 c-35 -19 -74 -97 -123 -247 l-39 -119 -110 -52 c-120 -58
-163 -95 -171 -147 -10 -61 24 -96 161 -164 l120 -60 37 -109 c56 -168 68
-196 100 -232 25 -29 37 -34 72 -34 70 0 105 50 170 245 20 61 40 115 44 121
4 7 55 35 115 64 121 60 167 101 167 153 0 63 -30 91 -167 158 -55 27 -106 56
-112 63 -7 8 -32 73 -56 145 -50 149 -74 195 -115 216 -36 19 -57 18 -93 -1z
m83 -311 c48 -147 64 -167 178 -221 l96 -45 -89 -42 c-50 -23 -100 -53 -112
-66 -26 -29 -52 -87 -83 -189 l-23 -75 -32 95 c-55 164 -68 179 -193 238 l-82
39 97 49 c115 58 125 70 174 213 18 55 35 101 36 101 1 0 16 -44 33 -97z"/>
<path d="M1005 1755 c-51 -18 -120 -91 -134 -141 -25 -90 -7 -162 58 -224 95
-93 218 -93 311 0 93 93 93 216 0 311 -64 67 -146 85 -235 54z m130 -160 c14
-13 25 -36 25 -50 0 -33 -42 -75 -75 -75 -33 0 -75 42 -75 75 0 14 11 37 25
50 13 14 36 25 50 25 14 0 37 -11 50 -25z"/>
<path d="M4336 1661 c-19 -20 -38 -150 -55 -369 -6 -73 -18 -161 -27 -195 -55
-217 -253 -498 -601 -858 -114 -117 -127 -134 -127 -166 0 -42 31 -73 73 -73
53 0 448 430 599 654 164 242 213 373 232 619 5 73 15 173 21 222 16 122 15
142 -6 165 -24 26 -85 27 -109 1z"/>
<path d="M1114 1149 c-15 -17 -20 -40 -22 -115 l-4 -94 -72 0 c-83 0 -109 -17
-109 -71 0 -50 30 -71 111 -77 l70 -5 4 -87 c4 -105 19 -130 79 -130 56 0 69
25 69 131 l0 86 77 5 c85 6 113 25 113 78 0 52 -26 69 -110 72 l-75 3 -5 96
c-3 60 -10 102 -19 113 -20 24 -83 21 -107 -5z"/>
<path d="M1578 1073 c-27 -33 -27 -50 8 -212 58 -269 141 -470 278 -676 113
-169 171 -211 227 -166 39 31 31 76 -26 146 -116 143 -233 361 -283 530 -16
55 -42 159 -57 230 -15 72 -34 138 -43 148 -9 10 -29 17 -52 17 -23 0 -43 -7
-52 -17z"/>
</g>
</svg>
